<svg width="271" height="200" viewBox="0 0 271 200" fill="none" xmlns="http://www.w3.org/2000/svg">
<path d="M93.2185 200C73.7256 200 57.0312 195.942 43.1353 187.826C29.2393 179.71 18.5279 168.213 11.0009 153.333C3.66698 138.261 0 120.483 0 100C0 79.3237 3.66698 61.5459 11.0009 46.6667C18.5279 31.7874 29.2393 20.2899 43.1353 12.1739C57.0312 4.05797 73.7256 0 93.2185 0C112.711 0 129.406 4.05797 143.302 12.1739C157.198 20.2899 167.813 31.7874 175.147 46.6667C182.674 61.5459 186.437 79.3237 186.437 100C186.437 120.483 182.674 138.261 175.147 153.333C167.813 168.213 157.198 179.71 143.302 187.826C129.406 195.942 112.711 200 93.2185 200ZM93.2185 169.855C106.921 169.855 118.212 167.44 127.09 162.609C136.161 157.778 142.723 150.242 146.776 140C151.022 129.565 153.145 116.232 153.145 100C153.145 83.7681 151.022 70.5314 146.776 60.2899C142.723 49.8551 136.161 42.2222 127.09 37.3913C118.212 32.5604 106.921 30.1449 93.2185 30.1449C79.5156 30.1449 68.2252 32.5604 59.3472 37.3913C50.4692 42.2222 43.8108 49.8551 39.3718 60.2899C35.1258 70.5314 33.0028 83.7681 33.0028 100C33.0028 116.232 35.1258 129.565 39.3718 140C43.8108 150.242 50.4692 157.778 59.3472 162.609C68.2252 167.44 79.5156 169.855 93.2185 169.855Z" fill="url(#paint0_linear_3428_442)"/>
<path d="M271 197.101H239.734V49.2754H192.256V26.9565H201.52C212.328 26.9565 220.917 25.314 227.286 22.029C233.848 18.5507 239.252 12.1739 243.498 2.89855H271V197.101Z" fill="url(#paint1_linear_3428_442)"/>
<defs>
<linearGradient id="paint0_linear_3428_442" x1="91.52" y1="-40.5797" x2="91.52" y2="249.275" gradientUnits="userSpaceOnUse">
<stop stop-color="#6EE18F"/>
<stop offset="1" stop-color="#6EE18F" stop-opacity="0"/>
</linearGradient>
<linearGradient id="paint1_linear_3428_442" x1="91.52" y1="-40.5797" x2="91.52" y2="249.275" gradientUnits="userSpaceOnUse">
<stop stop-color="#6EE18F"/>
<stop offset="1" stop-color="#6EE18F" stop-opacity="0"/>
</linearGradient>
</defs>
</svg>
