<svg width="362" height="200" viewBox="0 0 362 200" fill="none" xmlns="http://www.w3.org/2000/svg">
<path d="M93.1691 200C73.6865 200 57.001 195.942 43.1124 187.826C29.2238 179.71 18.5181 168.213 10.9951 153.333C3.66504 138.261 0 120.483 0 100C0 79.3237 3.66504 61.5459 10.9951 46.6667C18.5181 31.7874 29.2238 20.2899 43.1124 12.1739C57.001 4.05797 73.6865 0 93.1691 0C112.652 0 129.337 4.05797 143.226 12.1739C157.114 20.2899 167.724 31.7874 175.054 46.6667C182.577 61.5459 186.338 79.3237 186.338 100C186.338 120.483 182.577 138.261 175.054 153.333C167.724 168.213 157.114 179.71 143.226 187.826C129.337 195.942 112.652 200 93.1691 200ZM93.1691 169.855C106.865 169.855 118.149 167.44 127.022 162.609C136.089 157.778 142.647 150.242 146.698 140C150.942 129.565 153.064 116.232 153.064 100C153.064 83.7681 150.942 70.5314 146.698 60.2899C142.647 49.8551 136.089 42.2222 127.022 37.3913C118.149 32.5604 106.865 30.1449 93.1691 30.1449C79.4734 30.1449 68.189 32.5604 59.3157 37.3913C50.4425 42.2222 43.7875 49.8551 39.3509 60.2899C35.1072 70.5314 32.9853 83.7681 32.9853 100C32.9853 116.232 35.1072 129.565 39.3509 140C43.7875 150.242 50.4425 157.778 59.3157 162.609C68.189 167.44 79.4734 169.855 93.1691 169.855Z" fill="url(#paint0_linear_3428_443)"/>
<path d="M361.421 197.101H199.099V176.522C199.099 164.541 200.835 154.396 204.307 146.087C207.779 137.778 213.47 130.628 221.378 124.638C229.287 118.647 239.896 113.43 253.206 108.986L299.501 93.0435C307.41 90.1449 313.583 87.2464 318.02 84.3478C322.456 81.4493 325.639 78.0676 327.568 74.2029C329.69 70.1449 330.751 65.314 330.751 59.7101C330.751 52.9469 329.111 47.2464 325.832 42.6087C322.746 37.971 317.634 34.4927 310.497 32.1739C303.552 29.8551 294.293 28.6956 282.719 28.6956C269.795 28.6956 259.475 30.2415 251.76 33.3333C244.044 36.2319 238.353 40.5797 234.688 46.3768C231.216 52.1739 229.48 59.4203 229.48 68.1159V71.3043H198.809V68.4058C198.809 56.4251 201.703 45.2174 207.49 34.7826C213.277 24.3478 222.343 15.942 234.688 9.56522C247.226 3.18841 263.623 0 283.877 0C302.202 0 317.055 2.70531 328.436 8.11594C340.01 13.3333 348.497 20.4831 353.898 29.5652C359.299 38.4541 362 48.6957 362 60.2899C362 70.7246 359.782 79.7102 355.345 87.2464C351.101 94.7826 344.832 101.159 336.538 106.377C328.436 111.594 318.695 115.942 307.314 119.42L266.516 131.884C257.836 134.783 250.892 137.971 245.683 141.449C240.668 144.928 237.003 149.082 234.688 153.913C232.566 158.744 231.505 164.831 231.505 172.174L278.379 168.986H361.421V197.101Z" fill="url(#paint1_linear_3428_443)"/>
<defs>
<linearGradient id="paint0_linear_3428_443" x1="176.806" y1="-40.5797" x2="176.806" y2="249.275" gradientUnits="userSpaceOnUse">
<stop stop-color="#6EE18F"/>
<stop offset="1" stop-color="#6EE18F" stop-opacity="0"/>
</linearGradient>
<linearGradient id="paint1_linear_3428_443" x1="176.806" y1="-40.5797" x2="176.806" y2="249.275" gradientUnits="userSpaceOnUse">
<stop stop-color="#6EE18F"/>
<stop offset="1" stop-color="#6EE18F" stop-opacity="0"/>
</linearGradient>
</defs>
</svg>
