<svg width="371" height="200" viewBox="0 0 371 200" fill="none" xmlns="http://www.w3.org/2000/svg">
<path d="M93.3223 200C73.8077 200 57.0947 195.942 43.1833 187.826C29.2719 179.71 18.5485 168.213 11.0132 153.333C3.67106 138.261 0 120.483 0 100C0 79.3237 3.67106 61.5459 11.0132 46.6667C18.5485 31.7874 29.2719 20.2899 43.1833 12.1739C57.0947 4.05797 73.8077 0 93.3223 0C112.837 0 129.55 4.05797 143.461 12.1739C157.373 20.2899 167.999 31.7874 175.342 46.6667C182.877 61.5459 186.645 79.3237 186.645 100C186.645 120.483 182.877 138.261 175.342 153.333C167.999 168.213 157.373 179.71 143.461 187.826C129.55 195.942 112.837 200 93.3223 200ZM93.3223 169.855C107.04 169.855 118.343 167.44 127.231 162.609C136.312 157.778 142.882 150.242 146.939 140C151.19 129.565 153.315 116.232 153.315 100C153.315 83.7681 151.19 70.5314 146.939 60.2899C142.882 49.8551 136.312 42.2222 127.231 37.3913C118.343 32.5604 107.04 30.1449 93.3223 30.1449C79.6041 30.1449 68.3011 32.5604 59.4133 37.3913C50.5254 42.2222 43.8595 49.8551 39.4156 60.2899C35.1649 70.5314 33.0396 83.7681 33.0396 100C33.0396 116.232 35.1649 129.565 39.4156 140C43.8595 150.242 50.5254 157.778 59.4133 162.609C68.3011 167.44 79.6041 169.855 93.3223 169.855Z" fill="url(#paint0_linear_3428_444)"/>
<path d="M285.793 200C265.505 200 248.889 197.198 235.944 191.594C223.191 185.99 213.724 178.261 207.541 168.406C201.358 158.357 198.267 146.763 198.267 133.623V128.986H231.306V133.043C231.306 141.546 232.755 148.599 235.654 154.203C238.552 159.614 243.865 163.671 251.594 166.377C259.322 169.082 270.336 170.435 284.633 170.435C297.965 170.435 308.592 169.372 316.514 167.246C324.629 164.928 330.425 161.449 333.903 156.812C337.574 151.981 339.41 145.797 339.41 138.261C339.41 128.406 336.125 121.159 329.556 116.522C323.18 111.884 313.905 109.565 301.733 109.565H247.536V83.4783H297.386C309.172 83.4783 318.059 81.3527 324.049 77.1014C330.039 72.657 333.033 66.087 333.033 57.3913C333.033 51.2077 331.488 46.087 328.396 42.029C325.498 37.7778 320.475 34.686 313.326 32.7536C306.177 30.628 296.323 29.5652 283.764 29.5652C270.625 29.5652 260.192 30.9179 252.463 33.6232C244.735 36.3285 239.228 40.4831 235.944 46.087C232.852 51.4976 231.306 58.4541 231.306 66.9565V68.9855H198.267V66.3768C198.267 53.6232 201.455 42.3188 207.831 32.4638C214.207 22.4155 223.868 14.4928 236.813 8.69564C249.758 2.89855 266.278 0 286.372 0C311.297 0 330.425 4.44445 343.757 13.3333C357.282 22.2222 364.044 34.8792 364.044 51.3043C364.044 62.1256 360.856 71.3043 354.48 78.8406C348.104 86.1836 338.637 90.9179 326.078 93.0435V95.3623C340.182 97.8744 351.196 103.092 359.117 111.014C367.039 118.744 371 129.372 371 142.899C371 161.256 363.465 175.362 348.394 185.217C333.323 195.072 312.456 200 285.793 200Z" fill="url(#paint1_linear_3428_444)"/>
<defs>
<linearGradient id="paint0_linear_3428_444" x1="184.172" y1="-40.5797" x2="184.172" y2="249.275" gradientUnits="userSpaceOnUse">
<stop stop-color="#6EE18F"/>
<stop offset="1" stop-color="#6EE18F" stop-opacity="0"/>
</linearGradient>
<linearGradient id="paint1_linear_3428_444" x1="184.172" y1="-40.5797" x2="184.172" y2="249.275" gradientUnits="userSpaceOnUse">
<stop stop-color="#6EE18F"/>
<stop offset="1" stop-color="#6EE18F" stop-opacity="0"/>
</linearGradient>
</defs>
</svg>
