<svg width="45" height="31" viewBox="0 0 45 31" fill="none" xmlns="http://www.w3.org/2000/svg">
<path d="M42.95 3.60829H12.3C11.7563 3.60829 11.2349 3.41822 10.8504 3.07987C10.466 2.74153 10.25 2.28264 10.25 1.80415C10.25 1.32566 10.466 0.866766 10.8504 0.528423C11.2349 0.19008 11.7563 0 12.3 0H42.95C43.4937 0 44.0151 0.19008 44.3996 0.528423C44.784 0.866766 45 1.32566 45 1.80415C45 2.28264 44.784 2.74153 44.3996 3.07987C44.0151 3.41822 43.4937 3.60829 42.95 3.60829ZM45 15.5C45 15.0215 44.784 14.5626 44.3996 14.2243C44.0151 13.8859 43.4937 13.6959 42.95 13.6959H2.05C1.50631 13.6959 0.984881 13.8859 0.600431 14.2243C0.215981 14.5626 0 15.0215 0 15.5C0 15.9785 0.215981 16.4374 0.600431 16.7757C0.984881 17.1141 1.50631 17.3041 2.05 17.3041H42.95C43.4937 17.3041 44.0151 17.1141 44.3996 16.7757C44.784 16.4374 45 15.9785 45 15.5ZM45 29.1959C45 28.7174 44.784 28.2585 44.3996 27.9201C44.0151 27.5818 43.4937 27.3917 42.95 27.3917H20.5C19.9563 27.3917 19.4349 27.5818 19.0504 27.9201C18.666 28.2585 18.45 28.7174 18.45 29.1959C18.45 29.6743 18.666 30.1332 19.0504 30.4716C19.4349 30.8099 19.9563 31 20.5 31H42.95C43.4937 31 44.0151 30.8099 44.3996 30.4716C44.784 30.1332 45 29.6743 45 29.1959Z" fill="white"/>
</svg>
